<?xml version="1.0" encoding="utf-8"?>
<!-- Generator: Adobe Illustrator 18.1.0, SVG Export Plug-In . SVG Version: 6.00 Build 0)  -->
<svg version="1.1" xmlns="http://www.w3.org/2000/svg" xmlns:xlink="http://www.w3.org/1999/xlink" x="0px" y="0px"
	 viewBox="0 256 841.9 97.3" enable-background="new 0 256 841.9 97.3" xml:space="preserve">
<g id="Layer_1">
	<g id="Layer_2" display="none">
	</g>
	<path fill="#E4E4E4" d="M820.9,297.1H535.3c-0.6,0-1.1,0.5-1.1,1.1l0,0c0,0.6,0.5,1.1,1.1,1.1h285.6c0.6,0,1.1-0.5,1.1-1.1l0,0
		C822.1,297.6,821.5,297.1,820.9,297.1z"/>
	<circle fill="#E4E4E4" cx="818.3" cy="288.4" r="1.6"/>
	<path fill="#E4E4E4" d="M819.9,288.4c0,0-0.1-1.9-2.5-2.3c-2.4-0.4-5.6,2.3-3.4,6.2c2.2,3.9,7.9,2.6,9.6,1.9s6-3.2,6-8.2
		c0-2.5-4.1-2.4-3.7,0.8c0,0-0.1,5.4-4.9,6.9s-7.8-1.9-6.7-5.3C815.2,285.5,819.9,286.3,819.9,288.4z"/>
	<path fill="#E4E4E4" d="M812.2,290.5c0,0,0.7,4.5,5.1,6.1c4.4,1.6,9.2-0.8,11.2-1.4c2-0.6,2.9-0.3,2.9-0.3s-4.1,1.5-4.4,3.2
		c0,0,0.2-0.9,1.6-0.9h2.9c0.4,0,0.6,0.3,0.6,0.6v0.2h8.6c0,0-2.5-1.4-3.2-2.3c-0.1-0.2-0.3-0.1-0.5,0c-0.4,0.5-1,1.2-1.5,1.3
		c-0.8,0.2-0.8,0.2-0.8,0.2s0.9-1.7-0.1-3.2c-1-1.5-4.1-1.3-7.1,0.9c0,0,2-1.5,1-4.2c0,0-1.9,5.4-7.3,5.7
		C815.8,296.9,812.8,292.2,812.2,290.5z"/>
	<circle fill="#E4E4E4" cx="818.3" cy="308" r="1.6"/>
	<path fill="#E4E4E4" d="M819.9,308c0,0-0.1,1.9-2.5,2.3c-2.4,0.4-5.6-2.3-3.4-6.2c2.2-3.9,7.9-2.6,9.6-1.9c1.6,0.7,6,3.2,6,8.2
		c0,2.5-4.1,2.4-3.7-0.8c0,0-0.1-5.4-4.9-6.9c-4.7-1.4-7.8,1.9-6.7,5.3C815.2,310.9,819.9,310.1,819.9,308z"/>
	<path fill="#E4E4E4" d="M812.2,305.9c0,0,0.7-4.5,5.1-6.1s9.2,0.8,11.2,1.4c2,0.6,2.9,0.3,2.9,0.3s-4.1-1.5-4.4-3.2
		c0,0,0.2,0.9,1.6,0.9h2.9c0.4,0,0.6-0.3,0.6-0.6v-0.2h8.6c0,0-2.5,1.4-3.2,2.3c-0.1,0.2-0.3,0.1-0.5,0c-0.4-0.5-1-1.2-1.5-1.3
		c-0.8-0.2-0.8-0.2-0.8-0.2s0.9,1.7-0.1,3.2s-4.1,1.3-7.1-0.9c0,0,2,1.5,1,4.2c0,0-1.9-5.4-7.3-5.7
		C815.8,299.5,812.8,304.2,812.2,305.9z"/>
	<circle fill="#E4E4E4" cx="825" cy="298.2" r="0.7"/>
	<path fill="#E4E4E4" d="M449.7,300.3c0,0,1.2,9.5,12.4,12.2c11.4,2.8,22.1-4.4,28.9-8s26.9-16.2,36.9-11.4
		c10,4.8,5.4,18.2-1.2,18.2s-10.6-8.7-3.4-12.6c0,0-4.5,1.1-5.4,5.4c-0.8,3.8,5.4,13.4,14.2,6.6c8.8-6.8,4.2-21.5-10.4-21.5
		c0,0,7.4-0.5,11,1.3c3.6,1.8,5.5,4.9,6.1,5.6s4.7,1.9,5.3-1.4c0,0,2.3,0.3,3.6-0.5c1.3-0.7,1.5-2.9,0.5-4.1c0,0-0.7,3.6-5.3,2.7
		c-4.5-0.9-7-2.5-8.8-3.4c-1.8-0.9-13-5.7-31.6,5.9l-0.5,0.3c0,0,2-2.4,2.3-4.9c0.3-2.5,0.4-7.4-5.8-10.1
		c-5.5-2.4-13.4,1.8-12.6,7.6c0.8,5.9,6.3,7.3,9.9,6.1c0,0,3-0.8,3.3-3.7c0.4-2.9-1-4.7-3.4-5c-2.4-0.3-3.8,1.8-3.3,3.7
		s3.5,2,3.5,0.1c0,0-1.7,1.7-2.7-0.5s3.4-3.5,4.3-1.3c0.9,2.1,0.3,5.9-5.2,5.5s-6.1-9.1,0.2-10.7c6.4-1.6,14,6.8,5.7,15
		c0,0-10.7,5.3-12.9,6.7c-2.2,1.4-9.3,5.6-14.5,6.7c-5.2,1.1-15,0.9-17.6-9.9c-2.4-10,8.9-17.6,17.5-14.3c0,0,5.7,2.4,5.3,8.8
		c-0.4,6.4-9.5,10.4-14,6.5c-4.5-3.9-1.5-9.1,1.6-9s3.7,1.7,3.6,4c-0.1,2.3-2.6,1.9-3.3,0.9c0,0,1.9,2,3.9,0.4c2-1.6,0.6-8-5.9-6.6
		c-6.5,1.4-6.4,13.3,4.3,14.1s13.7-8,12.8-13.7s-6.5-11.2-16.5-9.9C452.7,283.4,448.2,293.2,449.7,300.3z"/>
	<polyline fill="#E4E4E4" points="815.8,300.7 815.8,301.4 534.2,301.4 534.2,300.7 	"/>
	<path fill="#E4E4E4" d="M19.8,297.1h285.6c0.6,0,1.1,0.5,1.1,1.1l0,0c0,0.6-0.5,1.1-1.1,1.1H19.8c-0.6,0-1.1-0.5-1.1-1.1l0,0
		C18.6,297.6,19.1,297.1,19.8,297.1z"/>
	<circle fill="#E4E4E4" cx="22.4" cy="288.4" r="1.6"/>
	<path fill="#E4E4E4" d="M20.8,288.4c0,0,0.1-1.9,2.5-2.3s5.6,2.3,3.4,6.2c-2.2,3.9-7.9,2.6-9.6,1.9s-6-3.2-6-8.2
		c0-2.5,4.1-2.4,3.7,0.8c0,0,0.1,5.4,4.9,6.9s7.8-1.9,6.7-5.3C25.5,285.5,20.8,286.3,20.8,288.4z"/>
	<path fill="#E4E4E4" d="M28.5,290.5c0,0-0.7,4.5-5.1,6.1c-4.4,1.6-9.2-0.8-11.2-1.4S9.3,295,9.3,295s4.1,1.5,4.4,3.2
		c0,0-0.2-0.9-1.6-0.9H9.3c-0.4,0-0.6,0.3-0.6,0.6v0.2H0c0,0,2.5-1.4,3.2-2.3c0.1-0.2,0.3-0.1,0.5,0c0.4,0.5,1,1.2,1.5,1.3
		c0.8,0.2,0.8,0.2,0.8,0.2s-0.9-1.7,0.1-3.2c1-1.5,4.1-1.3,7.1,0.9c0,0-2-1.5-1-4.2c0,0,1.9,5.4,7.3,5.7
		C24.9,296.9,27.9,292.2,28.5,290.5z"/>
	<circle fill="#E4E4E4" cx="22.4" cy="308" r="1.6"/>
	<path fill="#E4E4E4" d="M20.8,308c0,0,0.1,1.9,2.5,2.3s5.6-2.3,3.4-6.2c-2.2-3.9-7.9-2.6-9.6-1.9c-1.6,0.7-6,3.2-6,8.2
		c0,2.5,4.1,2.4,3.7-0.8c0,0,0.1-5.4,4.9-6.9c4.7-1.4,7.8,1.9,6.7,5.3C25.5,310.9,20.8,310.1,20.8,308z"/>
	<path fill="#E4E4E4" d="M28.5,305.9c0,0-0.7-4.5-5.1-6.1s-9.2,0.8-11.2,1.4c-2,0.6-2.9,0.3-2.9,0.3s4.1-1.5,4.4-3.2
		c0,0-0.2,0.9-1.6,0.9H9.3c-0.4,0-0.6-0.3-0.6-0.6v-0.2H0c0,0,2.5,1.4,3.2,2.3c0.1,0.2,0.3,0.1,0.5,0c0.4-0.5,1-1.2,1.5-1.3
		c0.8-0.2,0.8-0.2,0.8-0.2s-0.9,1.7,0.1,3.2s4.1,1.3,7.1-0.9c0,0-2,1.5-1,4.2c0,0,1.9-5.4,7.3-5.7S27.9,304.2,28.5,305.9z"/>
	<circle fill="#E4E4E4" cx="15.7" cy="298.2" r="0.7"/>
	<path fill="#E4E4E4" d="M391,300.3c0,0-1.2,9.5-12.4,12.2c-11.4,2.8-22.1-4.4-28.9-8c-6.8-3.6-26.9-16.2-36.9-11.4
		s-5.4,18.2,1.2,18.2c6.6,0,10.6-8.7,3.4-12.6c0,0,4.5,1.1,5.4,5.4c0.8,3.8-5.4,13.4-14.2,6.6s-4.2-21.5,10.4-21.5
		c0,0-7.4-0.5-11,1.3c-3.6,1.8-5.5,4.9-6.1,5.6s-4.7,1.9-5.3-1.4c0,0-2.3,0.3-3.6-0.5c-1.3-0.7-1.5-2.9-0.5-4.1c0,0,0.7,3.6,5.3,2.7
		s7-2.5,8.8-3.4c1.8-0.9,13-5.7,31.6,5.9l0.5,0.3c0,0-2-2.4-2.3-4.9c-0.3-2.5-0.4-7.4,5.8-10.1c5.5-2.4,13.4,1.8,12.6,7.6
		c-0.8,5.9-6.3,7.3-9.9,6.1c0,0-3-0.8-3.3-3.7c-0.4-2.9,1-4.7,3.4-5c2.4-0.3,3.8,1.8,3.3,3.7s-3.5,2-3.5,0.1c0,0,1.7,1.7,2.7-0.5
		s-3.4-3.5-4.3-1.3s-0.3,5.9,5.2,5.5s6.1-9.1-0.2-10.7c-6.4-1.6-14,6.8-5.7,15c0,0,10.7,5.3,12.9,6.7c2.2,1.4,9.3,5.6,14.5,6.7
		c5.2,1.1,15,0.9,17.6-9.9c2.4-10-8.9-17.6-17.5-14.3c0,0-5.7,2.4-5.3,8.8c0.4,6.4,9.5,10.4,14,6.5c4.5-3.9,1.5-9.1-1.6-9
		s-3.7,1.7-3.6,4c0.1,2.3,2.6,1.9,3.3,0.9c0,0-1.9,2-3.9,0.4c-2-1.6-0.6-8,5.9-6.6c6.5,1.4,6.4,13.3-4.3,14.1s-13.7-8-12.8-13.7
		s6.5-11.2,16.5-9.9C387.9,283.4,392.5,293.2,391,300.3z"/>
	<polyline fill="#E4E4E4" points="24.9,300.7 24.9,301.4 306.5,301.4 306.5,300.7 	"/>
	<g>
		<defs>
			<rect id="SVGID_1_" x="310.1" y="256" width="209.7" height="97.3"/>
		</defs>
		<clipPath id="SVGID_2_">
			<use xlink:href="#SVGID_1_"  overflow="visible"/>
		</clipPath>
		<g clip-path="url(#SVGID_2_)">
			
				<image overflow="visible" width="5734" height="2669" xlink:href="FF5EA867DA1F5ABC.png"  transform="matrix(3.656622e-02 0 0 3.644209e-02 310.1096 256.0161)">
			</image>
		</g>
	</g>
</g>
<g id="Layer_2_1_" display="none">
</g>
</svg>
